<mxfile host="65bd71144e">
    <diagram id="uYJFZ_60_HJJ-vtOUY0J" name="proccess-tree-and-operate">
        <mxGraphModel dx="706" dy="897" grid="1" gridSize="10" guides="1" tooltips="1" connect="1" arrows="1" fold="1" page="1" pageScale="1" pageWidth="827" pageHeight="1169" background="#ffffff" math="0" shadow="0">
            <root>
                <mxCell id="UVgFr4VgrDs2HpoLc4kV-0"/>
                <mxCell id="UVgFr4VgrDs2HpoLc4kV-1" parent="UVgFr4VgrDs2HpoLc4kV-0"/>
                <mxCell id="radDfmzUJBzaBCt03nPj-68" value="" style="rounded=0;whiteSpace=wrap;html=1;labelBackgroundColor=#FFCCE6;fontColor=#CCFFCC;dashed=1;" parent="UVgFr4VgrDs2HpoLc4kV-1" vertex="1">
                    <mxGeometry x="130" y="20" width="185" height="83" as="geometry"/>
                </mxCell>
                <mxCell id="radDfmzUJBzaBCt03nPj-67" style="edgeStyle=orthogonalEdgeStyle;rounded=0;html=1;entryX=0.5;entryY=1;entryDx=0;entryDy=0;fontColor=#CCFFCC;endArrow=block;endFill=0;" parent="UVgFr4VgrDs2HpoLc4kV-1" edge="1">
                    <mxGeometry relative="1" as="geometry">
                        <mxPoint x="195" y="48" as="sourcePoint"/>
                        <mxPoint x="147.5" y="28" as="targetPoint"/>
                        <Array as="points">
                            <mxPoint x="148" y="48"/>
                        </Array>
                    </mxGeometry>
                </mxCell>
                <mxCell id="radDfmzUJBzaBCt03nPj-69" value="parent proccess" style="text;html=1;strokeColor=none;fillColor=none;align=left;verticalAlign=middle;whiteSpace=wrap;rounded=0;dashed=1;labelBackgroundColor=#FFFFFF;fontColor=#000000;" parent="UVgFr4VgrDs2HpoLc4kV-1" vertex="1">
                    <mxGeometry x="205" y="23" width="104.5" height="27" as="geometry"/>
                </mxCell>
                <mxCell id="radDfmzUJBzaBCt03nPj-94" value="&lt;font color=&quot;#ff0000&quot;&gt;operate&lt;/font&gt;" style="edgeStyle=orthogonalEdgeStyle;rounded=0;html=1;entryX=1;entryY=0.5;entryDx=0;entryDy=0;fontColor=#000000;endArrow=classic;endFill=1;dashed=1;" parent="UVgFr4VgrDs2HpoLc4kV-1" edge="1">
                    <mxGeometry x="-0.3333" relative="1" as="geometry">
                        <mxPoint x="195" y="80" as="sourcePoint"/>
                        <mxPoint x="145" y="60" as="targetPoint"/>
                        <mxPoint as="offset"/>
                    </mxGeometry>
                </mxCell>
                <mxCell id="radDfmzUJBzaBCt03nPj-95" value="operate" style="text;html=1;strokeColor=none;fillColor=none;align=left;verticalAlign=middle;whiteSpace=wrap;rounded=0;dashed=1;labelBackgroundColor=#FFFFFF;fontColor=#000000;" parent="UVgFr4VgrDs2HpoLc4kV-1" vertex="1">
                    <mxGeometry x="205" y="60" width="104.5" height="27" as="geometry"/>
                </mxCell>
                <mxCell id="radDfmzUJBzaBCt03nPj-96" value="" style="shape=flexArrow;endArrow=classic;html=1;rounded=0;fontColor=#FF0000;width=20;endSize=10;" parent="UVgFr4VgrDs2HpoLc4kV-1" edge="1">
                    <mxGeometry width="50" height="50" relative="1" as="geometry">
                        <mxPoint x="510" y="517" as="sourcePoint"/>
                        <mxPoint x="560" y="517" as="targetPoint"/>
                        <Array as="points">
                            <mxPoint x="530" y="517"/>
                        </Array>
                    </mxGeometry>
                </mxCell>
                <mxCell id="radDfmzUJBzaBCt03nPj-121" value="PID Namespace: a" style="text;html=1;strokeColor=none;fillColor=none;align=center;verticalAlign=middle;whiteSpace=wrap;rounded=0;" parent="UVgFr4VgrDs2HpoLc4kV-1" vertex="1">
                    <mxGeometry x="43" y="130.5" width="150" height="30" as="geometry"/>
                </mxCell>
                <mxCell id="radDfmzUJBzaBCt03nPj-122" value="PID Namespace: b" style="text;html=1;strokeColor=none;fillColor=none;align=center;verticalAlign=middle;whiteSpace=wrap;rounded=0;" parent="UVgFr4VgrDs2HpoLc4kV-1" vertex="1">
                    <mxGeometry x="273" y="130" width="150" height="30" as="geometry"/>
                </mxCell>
                <mxCell id="radDfmzUJBzaBCt03nPj-143" value="kill -9 15" style="edgeStyle=orthogonalEdgeStyle;rounded=0;html=1;exitX=0.25;exitY=1;exitDx=0;exitDy=0;entryX=0.25;entryY=0;entryDx=0;entryDy=0;fontColor=#FF0000;endArrow=classic;endFill=1;dashed=1;" parent="UVgFr4VgrDs2HpoLc4kV-1" source="radDfmzUJBzaBCt03nPj-123" target="radDfmzUJBzaBCt03nPj-135" edge="1">
                    <mxGeometry relative="1" as="geometry"/>
                </mxCell>
                <mxCell id="radDfmzUJBzaBCt03nPj-123" value="" style="rounded=0;whiteSpace=wrap;html=1;" parent="UVgFr4VgrDs2HpoLc4kV-1" vertex="1">
                    <mxGeometry x="25.5" y="195.5" width="185" height="72.5" as="geometry"/>
                </mxCell>
                <mxCell id="radDfmzUJBzaBCt03nPj-124" style="edgeStyle=orthogonalEdgeStyle;rounded=0;html=1;exitX=0;exitY=0.5;exitDx=0;exitDy=0;entryX=1;entryY=0.5;entryDx=0;entryDy=0;fontColor=#CCFFCC;endArrow=block;endFill=0;" parent="UVgFr4VgrDs2HpoLc4kV-1" source="radDfmzUJBzaBCt03nPj-125" target="radDfmzUJBzaBCt03nPj-123" edge="1">
                    <mxGeometry relative="1" as="geometry"/>
                </mxCell>
                <mxCell id="radDfmzUJBzaBCt03nPj-125" value="" style="rounded=0;whiteSpace=wrap;html=1;" parent="UVgFr4VgrDs2HpoLc4kV-1" vertex="1">
                    <mxGeometry x="255" y="183.75" width="186" height="95" as="geometry"/>
                </mxCell>
                <mxCell id="radDfmzUJBzaBCt03nPj-126" value="&lt;div&gt;&lt;i style=&quot;background-color: rgb(204 , 229 , 255)&quot;&gt;PID Namespace b:&lt;/i&gt;&lt;/div&gt;&lt;div&gt;&lt;i style=&quot;background-color: rgb(204 , 229 , 255)&quot;&gt;&lt;span style=&quot;white-space: pre&quot;&gt;&#9;&lt;/span&gt;PID: 1&lt;/i&gt;&lt;/div&gt;&lt;div&gt;&lt;i style=&quot;background-color: rgb(204 , 229 , 255)&quot;&gt;&lt;span style=&quot;white-space: pre&quot;&gt;&#9;&lt;/span&gt;PPID: 0&lt;/i&gt;&lt;/div&gt;&lt;i&gt;&lt;div&gt;&lt;i style=&quot;background-color: rgb(204 , 255 , 204)&quot;&gt;PID Namespace a:&lt;/i&gt;&lt;/div&gt;&lt;div&gt;&lt;i style=&quot;background-color: rgb(204 , 255 , 204)&quot;&gt;&lt;span style=&quot;white-space: pre&quot;&gt;&#9;&lt;/span&gt;PID: 11&lt;/i&gt;&lt;/div&gt;&lt;div&gt;&lt;i style=&quot;background-color: rgb(204 , 255 , 204)&quot;&gt;&lt;span style=&quot;white-space: pre&quot;&gt;&#9;&lt;/span&gt;PPID: 10&lt;/i&gt;&lt;/div&gt;&lt;/i&gt;" style="text;html=1;strokeColor=none;fillColor=none;align=left;verticalAlign=middle;whiteSpace=wrap;rounded=0;" parent="UVgFr4VgrDs2HpoLc4kV-1" vertex="1">
                    <mxGeometry x="275.5" y="216.25" width="147.5" height="30" as="geometry"/>
                </mxCell>
                <mxCell id="radDfmzUJBzaBCt03nPj-127" style="edgeStyle=orthogonalEdgeStyle;rounded=0;html=1;exitX=0.5;exitY=0;exitDx=0;exitDy=0;entryX=0.5;entryY=1;entryDx=0;entryDy=0;fontColor=#CCFFCC;endArrow=block;endFill=0;" parent="UVgFr4VgrDs2HpoLc4kV-1" source="radDfmzUJBzaBCt03nPj-129" target="radDfmzUJBzaBCt03nPj-125" edge="1">
                    <mxGeometry relative="1" as="geometry"/>
                </mxCell>
                <mxCell id="radDfmzUJBzaBCt03nPj-129" value="" style="rounded=0;whiteSpace=wrap;html=1;" parent="UVgFr4VgrDs2HpoLc4kV-1" vertex="1">
                    <mxGeometry x="255" y="322.25" width="186" height="95" as="geometry"/>
                </mxCell>
                <mxCell id="radDfmzUJBzaBCt03nPj-130" value="&lt;div&gt;&lt;i style=&quot;background-color: rgb(204 , 255 , 204)&quot;&gt;PID Namespace a PID:&amp;nbsp; 10&lt;/i&gt;&lt;br&gt;&lt;/div&gt;" style="text;html=1;strokeColor=none;fillColor=none;align=left;verticalAlign=middle;whiteSpace=wrap;rounded=0;" parent="UVgFr4VgrDs2HpoLc4kV-1" vertex="1">
                    <mxGeometry x="43" y="216.75" width="147.5" height="30" as="geometry"/>
                </mxCell>
                <mxCell id="radDfmzUJBzaBCt03nPj-131" style="edgeStyle=orthogonalEdgeStyle;rounded=0;html=1;exitX=0;exitY=0.5;exitDx=0;exitDy=0;entryX=0.5;entryY=1;entryDx=0;entryDy=0;fontColor=#CCFFCC;endArrow=block;endFill=0;" parent="UVgFr4VgrDs2HpoLc4kV-1" source="radDfmzUJBzaBCt03nPj-132" target="radDfmzUJBzaBCt03nPj-135" edge="1">
                    <mxGeometry relative="1" as="geometry"/>
                </mxCell>
                <mxCell id="radDfmzUJBzaBCt03nPj-132" value="" style="rounded=0;whiteSpace=wrap;html=1;" parent="UVgFr4VgrDs2HpoLc4kV-1" vertex="1">
                    <mxGeometry x="254.13" y="755.5" width="186" height="95" as="geometry"/>
                </mxCell>
                <mxCell id="radDfmzUJBzaBCt03nPj-133" value="&lt;div&gt;&lt;i style=&quot;background-color: rgb(204 , 229 , 255)&quot;&gt;PID Namespace b:&lt;/i&gt;&lt;/div&gt;&lt;div&gt;&lt;i style=&quot;background-color: rgb(204 , 229 , 255)&quot;&gt;&lt;span style=&quot;white-space: pre&quot;&gt;&#9;&lt;/span&gt;PID: 2&lt;/i&gt;&lt;/div&gt;&lt;div&gt;&lt;i style=&quot;background-color: rgb(204 , 229 , 255)&quot;&gt;&lt;span style=&quot;white-space: pre&quot;&gt;&#9;&lt;/span&gt;PPID: 1&lt;/i&gt;&lt;/div&gt;&lt;i&gt;&lt;div&gt;&lt;i style=&quot;background-color: rgb(204 , 255 , 204)&quot;&gt;PID Namespace a:&lt;/i&gt;&lt;/div&gt;&lt;div&gt;&lt;i style=&quot;background-color: rgb(204 , 255 , 204)&quot;&gt;&lt;span style=&quot;white-space: pre&quot;&gt;&#9;&lt;/span&gt;PID: 12&lt;/i&gt;&lt;/div&gt;&lt;div&gt;&lt;i style=&quot;background-color: rgb(204 , 255 , 204)&quot;&gt;&lt;span style=&quot;white-space: pre&quot;&gt;&#9;&lt;/span&gt;PPID: 11&lt;/i&gt;&lt;/div&gt;&lt;/i&gt;" style="text;html=1;strokeColor=none;fillColor=none;align=left;verticalAlign=middle;whiteSpace=wrap;rounded=0;" parent="UVgFr4VgrDs2HpoLc4kV-1" vertex="1">
                    <mxGeometry x="278.5" y="354.75" width="147.5" height="30" as="geometry"/>
                </mxCell>
                <mxCell id="radDfmzUJBzaBCt03nPj-134" value="&lt;div&gt;&lt;i style=&quot;background-color: rgb(204 , 229 , 255)&quot;&gt;PID Namespace b:&lt;/i&gt;&lt;/div&gt;&lt;div&gt;&lt;i style=&quot;background-color: rgb(204 , 229 , 255)&quot;&gt;&lt;span style=&quot;white-space: pre&quot;&gt;&#9;&lt;/span&gt;PID: 5&lt;/i&gt;&lt;/div&gt;&lt;div&gt;&lt;i style=&quot;background-color: rgb(204 , 229 , 255)&quot;&gt;&lt;span style=&quot;white-space: pre&quot;&gt;&#9;&lt;/span&gt;PPID: 0&lt;/i&gt;&lt;/div&gt;&lt;i&gt;&lt;div&gt;&lt;i style=&quot;background-color: rgb(204 , 255 , 204)&quot;&gt;PID Namespace a:&lt;/i&gt;&lt;/div&gt;&lt;div&gt;&lt;i style=&quot;background-color: rgb(204 , 255 , 204)&quot;&gt;&lt;span style=&quot;white-space: pre&quot;&gt;&#9;&lt;/span&gt;PID: 16&lt;/i&gt;&lt;/div&gt;&lt;div&gt;&lt;i style=&quot;background-color: rgb(204 , 255 , 204)&quot;&gt;&lt;span style=&quot;white-space: pre&quot;&gt;&#9;&lt;/span&gt;PPID: 15&lt;/i&gt;&lt;/div&gt;&lt;/i&gt;" style="text;html=1;strokeColor=none;fillColor=none;align=left;verticalAlign=middle;whiteSpace=wrap;rounded=0;" parent="UVgFr4VgrDs2HpoLc4kV-1" vertex="1">
                    <mxGeometry x="276.38" y="788" width="147.5" height="30" as="geometry"/>
                </mxCell>
                <mxCell id="radDfmzUJBzaBCt03nPj-135" value="" style="rounded=0;whiteSpace=wrap;html=1;" parent="UVgFr4VgrDs2HpoLc4kV-1" vertex="1">
                    <mxGeometry x="25.5" y="683" width="185" height="72.5" as="geometry"/>
                </mxCell>
                <mxCell id="radDfmzUJBzaBCt03nPj-136" value="&lt;div&gt;&lt;i style=&quot;background-color: rgb(204 , 255 , 204)&quot;&gt;PID Namespace a PID:&amp;nbsp; 15&lt;/i&gt;&lt;br&gt;&lt;/div&gt;" style="text;html=1;strokeColor=none;fillColor=none;align=left;verticalAlign=middle;whiteSpace=wrap;rounded=0;" parent="UVgFr4VgrDs2HpoLc4kV-1" vertex="1">
                    <mxGeometry x="45.5" y="704.25" width="147.5" height="30" as="geometry"/>
                </mxCell>
                <mxCell id="radDfmzUJBzaBCt03nPj-137" style="edgeStyle=orthogonalEdgeStyle;rounded=0;html=1;exitX=0;exitY=0.5;exitDx=0;exitDy=0;fontColor=#FF0000;endArrow=block;endFill=0;" parent="UVgFr4VgrDs2HpoLc4kV-1" source="radDfmzUJBzaBCt03nPj-138" target="radDfmzUJBzaBCt03nPj-123" edge="1">
                    <mxGeometry relative="1" as="geometry"/>
                </mxCell>
                <mxCell id="radDfmzUJBzaBCt03nPj-146" value="kill -9 2" style="edgeStyle=orthogonalEdgeStyle;rounded=0;html=1;exitX=1;exitY=0.5;exitDx=0;exitDy=0;entryX=1;entryY=0.5;entryDx=0;entryDy=0;fontColor=#FF0000;endArrow=classic;endFill=1;dashed=1;" parent="UVgFr4VgrDs2HpoLc4kV-1" source="radDfmzUJBzaBCt03nPj-138" target="radDfmzUJBzaBCt03nPj-129" edge="1">
                    <mxGeometry relative="1" as="geometry">
                        <Array as="points">
                            <mxPoint x="470" y="643.5"/>
                            <mxPoint x="470" y="369.5"/>
                        </Array>
                    </mxGeometry>
                </mxCell>
                <mxCell id="radDfmzUJBzaBCt03nPj-138" value="" style="rounded=0;whiteSpace=wrap;html=1;" parent="UVgFr4VgrDs2HpoLc4kV-1" vertex="1">
                    <mxGeometry x="254.13" y="595.5" width="186" height="95" as="geometry"/>
                </mxCell>
                <mxCell id="radDfmzUJBzaBCt03nPj-139" value="&lt;div&gt;&lt;i style=&quot;background-color: rgb(204 , 229 , 255)&quot;&gt;PID Namespace b:&lt;/i&gt;&lt;/div&gt;&lt;div&gt;&lt;i style=&quot;background-color: rgb(204 , 229 , 255)&quot;&gt;&lt;span style=&quot;white-space: pre&quot;&gt;&#9;&lt;/span&gt;PID: 4&lt;/i&gt;&lt;/div&gt;&lt;div&gt;&lt;i style=&quot;background-color: rgb(204 , 229 , 255)&quot;&gt;&lt;span style=&quot;white-space: pre&quot;&gt;&#9;&lt;/span&gt;PPID: 0&lt;/i&gt;&lt;/div&gt;&lt;i&gt;&lt;div&gt;&lt;i style=&quot;background-color: rgb(204 , 255 , 204)&quot;&gt;PID Namespace a:&lt;/i&gt;&lt;/div&gt;&lt;div&gt;&lt;i style=&quot;background-color: rgb(204 , 255 , 204)&quot;&gt;&lt;span style=&quot;white-space: pre&quot;&gt;&#9;&lt;/span&gt;PID: 14&lt;/i&gt;&lt;/div&gt;&lt;div&gt;&lt;i style=&quot;background-color: rgb(204 , 255 , 204)&quot;&gt;&lt;span style=&quot;white-space: pre&quot;&gt;&#9;&lt;/span&gt;PPID: 10&lt;/i&gt;&lt;/div&gt;&lt;/i&gt;" style="text;html=1;strokeColor=none;fillColor=none;align=left;verticalAlign=middle;whiteSpace=wrap;rounded=0;" parent="UVgFr4VgrDs2HpoLc4kV-1" vertex="1">
                    <mxGeometry x="276.38" y="628" width="147.5" height="30" as="geometry"/>
                </mxCell>
                <mxCell id="radDfmzUJBzaBCt03nPj-140" style="edgeStyle=orthogonalEdgeStyle;rounded=0;html=1;exitX=0.5;exitY=0;exitDx=0;exitDy=0;entryX=0.5;entryY=1;entryDx=0;entryDy=0;fontColor=#FF0000;endArrow=block;endFill=0;" parent="UVgFr4VgrDs2HpoLc4kV-1" source="radDfmzUJBzaBCt03nPj-141" target="radDfmzUJBzaBCt03nPj-129" edge="1">
                    <mxGeometry relative="1" as="geometry"/>
                </mxCell>
                <mxCell id="radDfmzUJBzaBCt03nPj-141" value="" style="rounded=0;whiteSpace=wrap;html=1;" parent="UVgFr4VgrDs2HpoLc4kV-1" vertex="1">
                    <mxGeometry x="255" y="465.5" width="186" height="95" as="geometry"/>
                </mxCell>
                <mxCell id="radDfmzUJBzaBCt03nPj-142" value="&lt;div&gt;&lt;i style=&quot;background-color: rgb(204 , 229 , 255)&quot;&gt;PID Namespace b:&lt;/i&gt;&lt;/div&gt;&lt;div&gt;&lt;i style=&quot;background-color: rgb(204 , 229 , 255)&quot;&gt;&lt;span style=&quot;white-space: pre&quot;&gt;&#9;&lt;/span&gt;PID: 3&lt;/i&gt;&lt;/div&gt;&lt;div&gt;&lt;i style=&quot;background-color: rgb(204 , 229 , 255)&quot;&gt;&lt;span style=&quot;white-space: pre&quot;&gt;&#9;&lt;/span&gt;PPID: 2&lt;/i&gt;&lt;/div&gt;&lt;i&gt;&lt;div&gt;&lt;i style=&quot;background-color: rgb(204 , 255 , 204)&quot;&gt;PID Namespace a:&lt;/i&gt;&lt;/div&gt;&lt;div&gt;&lt;i style=&quot;background-color: rgb(204 , 255 , 204)&quot;&gt;&lt;span style=&quot;white-space: pre&quot;&gt;&#9;&lt;/span&gt;PID: 13&lt;/i&gt;&lt;/div&gt;&lt;div&gt;&lt;i style=&quot;background-color: rgb(204 , 255 , 204)&quot;&gt;&lt;span style=&quot;white-space: pre&quot;&gt;&#9;&lt;/span&gt;PPID: 12&lt;/i&gt;&lt;/div&gt;&lt;/i&gt;" style="text;html=1;strokeColor=none;fillColor=none;align=left;verticalAlign=middle;whiteSpace=wrap;rounded=0;" parent="UVgFr4VgrDs2HpoLc4kV-1" vertex="1">
                    <mxGeometry x="278.5" y="498" width="147.5" height="30" as="geometry"/>
                </mxCell>
                <mxCell id="radDfmzUJBzaBCt03nPj-147" value="PID Namespace: a" style="text;html=1;strokeColor=none;fillColor=none;align=center;verticalAlign=middle;whiteSpace=wrap;rounded=0;" parent="UVgFr4VgrDs2HpoLc4kV-1" vertex="1">
                    <mxGeometry x="607.5" y="131" width="150" height="30" as="geometry"/>
                </mxCell>
                <mxCell id="radDfmzUJBzaBCt03nPj-148" value="PID Namespace: b" style="text;html=1;strokeColor=none;fillColor=none;align=center;verticalAlign=middle;whiteSpace=wrap;rounded=0;" parent="UVgFr4VgrDs2HpoLc4kV-1" vertex="1">
                    <mxGeometry x="837.5" y="130.5" width="150" height="30" as="geometry"/>
                </mxCell>
                <mxCell id="radDfmzUJBzaBCt03nPj-150" value="" style="rounded=0;whiteSpace=wrap;html=1;" parent="UVgFr4VgrDs2HpoLc4kV-1" vertex="1">
                    <mxGeometry x="590" y="196" width="185" height="72.5" as="geometry"/>
                </mxCell>
                <mxCell id="radDfmzUJBzaBCt03nPj-151" style="edgeStyle=orthogonalEdgeStyle;rounded=0;html=1;exitX=0;exitY=0.5;exitDx=0;exitDy=0;entryX=1;entryY=0.5;entryDx=0;entryDy=0;fontColor=#CCFFCC;endArrow=block;endFill=0;" parent="UVgFr4VgrDs2HpoLc4kV-1" source="radDfmzUJBzaBCt03nPj-152" target="radDfmzUJBzaBCt03nPj-150" edge="1">
                    <mxGeometry relative="1" as="geometry"/>
                </mxCell>
                <mxCell id="radDfmzUJBzaBCt03nPj-152" value="" style="rounded=0;whiteSpace=wrap;html=1;" parent="UVgFr4VgrDs2HpoLc4kV-1" vertex="1">
                    <mxGeometry x="819.5" y="184.25" width="186" height="95" as="geometry"/>
                </mxCell>
                <mxCell id="radDfmzUJBzaBCt03nPj-153" value="&lt;div&gt;&lt;i style=&quot;background-color: rgb(204 , 229 , 255)&quot;&gt;PID Namespace b:&lt;/i&gt;&lt;/div&gt;&lt;div&gt;&lt;i style=&quot;background-color: rgb(204 , 229 , 255)&quot;&gt;&lt;span style=&quot;white-space: pre&quot;&gt;&#9;&lt;/span&gt;PID: 1&lt;/i&gt;&lt;/div&gt;&lt;div&gt;&lt;i style=&quot;background-color: rgb(204 , 229 , 255)&quot;&gt;&lt;span style=&quot;white-space: pre&quot;&gt;&#9;&lt;/span&gt;PPID: 0&lt;/i&gt;&lt;/div&gt;&lt;i&gt;&lt;div&gt;&lt;i style=&quot;background-color: rgb(204 , 255 , 204)&quot;&gt;PID Namespace a:&lt;/i&gt;&lt;/div&gt;&lt;div&gt;&lt;i style=&quot;background-color: rgb(204 , 255 , 204)&quot;&gt;&lt;span style=&quot;white-space: pre&quot;&gt;&#9;&lt;/span&gt;PID: 11&lt;/i&gt;&lt;/div&gt;&lt;div&gt;&lt;i style=&quot;background-color: rgb(204 , 255 , 204)&quot;&gt;&lt;span style=&quot;white-space: pre&quot;&gt;&#9;&lt;/span&gt;PPID: 10&lt;/i&gt;&lt;/div&gt;&lt;/i&gt;" style="text;html=1;strokeColor=none;fillColor=none;align=left;verticalAlign=middle;whiteSpace=wrap;rounded=0;" parent="UVgFr4VgrDs2HpoLc4kV-1" vertex="1">
                    <mxGeometry x="840" y="216.75" width="147.5" height="30" as="geometry"/>
                </mxCell>
                <mxCell id="radDfmzUJBzaBCt03nPj-156" value="&lt;div&gt;&lt;i style=&quot;background-color: rgb(204 , 255 , 204)&quot;&gt;PID Namespace a PID:&amp;nbsp; 10&lt;/i&gt;&lt;br&gt;&lt;/div&gt;" style="text;html=1;strokeColor=none;fillColor=none;align=left;verticalAlign=middle;whiteSpace=wrap;rounded=0;" parent="UVgFr4VgrDs2HpoLc4kV-1" vertex="1">
                    <mxGeometry x="607.5" y="217.25" width="147.5" height="30" as="geometry"/>
                </mxCell>
                <mxCell id="radDfmzUJBzaBCt03nPj-157" style="edgeStyle=orthogonalEdgeStyle;rounded=0;html=1;exitX=0;exitY=0.5;exitDx=0;exitDy=0;entryX=0.5;entryY=0;entryDx=0;entryDy=0;fontColor=#CCFFCC;endArrow=block;endFill=0;" parent="UVgFr4VgrDs2HpoLc4kV-1" source="radDfmzUJBzaBCt03nPj-158" target="radDfmzUJBzaBCt03nPj-161" edge="1">
                    <mxGeometry relative="1" as="geometry"/>
                </mxCell>
                <mxCell id="radDfmzUJBzaBCt03nPj-158" value="" style="rounded=0;whiteSpace=wrap;html=1;" parent="UVgFr4VgrDs2HpoLc4kV-1" vertex="1">
                    <mxGeometry x="819.5" y="756" width="186" height="95" as="geometry"/>
                </mxCell>
                <mxCell id="radDfmzUJBzaBCt03nPj-160" value="&lt;div&gt;&lt;i style=&quot;background-color: rgb(204 , 229 , 255)&quot;&gt;PID Namespace b:&lt;/i&gt;&lt;/div&gt;&lt;div&gt;&lt;i style=&quot;background-color: rgb(204 , 229 , 255)&quot;&gt;&lt;span style=&quot;white-space: pre&quot;&gt;&#9;&lt;/span&gt;PID: 5&lt;/i&gt;&lt;/div&gt;&lt;div&gt;&lt;i style=&quot;background-color: rgb(204 , 229 , 255)&quot;&gt;&lt;span style=&quot;white-space: pre&quot;&gt;&#9;&lt;/span&gt;PPID: 0&lt;/i&gt;&lt;/div&gt;&lt;i&gt;&lt;div&gt;&lt;i style=&quot;background-color: rgb(204 , 255 , 204)&quot;&gt;PID Namespace a:&lt;/i&gt;&lt;/div&gt;&lt;div&gt;&lt;i style=&quot;background-color: rgb(204 , 255 , 204)&quot;&gt;&lt;span style=&quot;white-space: pre&quot;&gt;&#9;&lt;/span&gt;PID: 16&lt;/i&gt;&lt;/div&gt;&lt;div&gt;&lt;i style=&quot;background-color: rgb(204 , 255 , 204)&quot;&gt;&lt;span style=&quot;white-space: pre&quot;&gt;&#9;&lt;/span&gt;PPID: 1&lt;/i&gt;&lt;/div&gt;&lt;/i&gt;" style="text;html=1;strokeColor=none;fillColor=none;align=left;verticalAlign=middle;whiteSpace=wrap;rounded=0;" parent="UVgFr4VgrDs2HpoLc4kV-1" vertex="1">
                    <mxGeometry x="841.75" y="788.5" width="147.5" height="30" as="geometry"/>
                </mxCell>
                <mxCell id="radDfmzUJBzaBCt03nPj-161" value="" style="rounded=0;whiteSpace=wrap;html=1;" parent="UVgFr4VgrDs2HpoLc4kV-1" vertex="1">
                    <mxGeometry x="580" y="866" width="185" height="72.5" as="geometry"/>
                </mxCell>
                <mxCell id="radDfmzUJBzaBCt03nPj-162" value="&lt;div&gt;&lt;i style=&quot;background-color: rgb(204 , 255 , 204)&quot;&gt;PID Namespace a PID:&amp;nbsp; 1&lt;/i&gt;&lt;br&gt;&lt;/div&gt;" style="text;html=1;strokeColor=none;fillColor=none;align=left;verticalAlign=middle;whiteSpace=wrap;rounded=0;" parent="UVgFr4VgrDs2HpoLc4kV-1" vertex="1">
                    <mxGeometry x="598.75" y="887.25" width="147.5" height="30" as="geometry"/>
                </mxCell>
                <mxCell id="radDfmzUJBzaBCt03nPj-163" style="edgeStyle=orthogonalEdgeStyle;rounded=0;html=1;exitX=0;exitY=0.5;exitDx=0;exitDy=0;fontColor=#FF0000;endArrow=block;endFill=0;" parent="UVgFr4VgrDs2HpoLc4kV-1" source="radDfmzUJBzaBCt03nPj-165" target="radDfmzUJBzaBCt03nPj-150" edge="1">
                    <mxGeometry relative="1" as="geometry"/>
                </mxCell>
                <mxCell id="radDfmzUJBzaBCt03nPj-165" value="" style="rounded=0;whiteSpace=wrap;html=1;" parent="UVgFr4VgrDs2HpoLc4kV-1" vertex="1">
                    <mxGeometry x="819.5" y="596" width="186" height="95" as="geometry"/>
                </mxCell>
                <mxCell id="radDfmzUJBzaBCt03nPj-166" value="&lt;div&gt;&lt;i style=&quot;background-color: rgb(204 , 229 , 255)&quot;&gt;PID Namespace b:&lt;/i&gt;&lt;/div&gt;&lt;div&gt;&lt;i style=&quot;background-color: rgb(204 , 229 , 255)&quot;&gt;&lt;span style=&quot;white-space: pre&quot;&gt;&#9;&lt;/span&gt;PID: 4&lt;/i&gt;&lt;/div&gt;&lt;div&gt;&lt;i style=&quot;background-color: rgb(204 , 229 , 255)&quot;&gt;&lt;span style=&quot;white-space: pre&quot;&gt;&#9;&lt;/span&gt;PPID: 0&lt;/i&gt;&lt;/div&gt;&lt;i&gt;&lt;div&gt;&lt;i style=&quot;background-color: rgb(204 , 255 , 204)&quot;&gt;PID Namespace a:&lt;/i&gt;&lt;/div&gt;&lt;div&gt;&lt;i style=&quot;background-color: rgb(204 , 255 , 204)&quot;&gt;&lt;span style=&quot;white-space: pre&quot;&gt;&#9;&lt;/span&gt;PID: 14&lt;/i&gt;&lt;/div&gt;&lt;div&gt;&lt;i style=&quot;background-color: rgb(204 , 255 , 204)&quot;&gt;&lt;span style=&quot;white-space: pre&quot;&gt;&#9;&lt;/span&gt;PPID: 10&lt;/i&gt;&lt;/div&gt;&lt;/i&gt;" style="text;html=1;strokeColor=none;fillColor=none;align=left;verticalAlign=middle;whiteSpace=wrap;rounded=0;" parent="UVgFr4VgrDs2HpoLc4kV-1" vertex="1">
                    <mxGeometry x="841.75" y="628.5" width="147.5" height="30" as="geometry"/>
                </mxCell>
                <mxCell id="radDfmzUJBzaBCt03nPj-167" style="edgeStyle=orthogonalEdgeStyle;rounded=0;html=1;exitX=0.5;exitY=0;exitDx=0;exitDy=0;entryX=0.5;entryY=1;entryDx=0;entryDy=0;fontColor=#FF0000;endArrow=block;endFill=0;" parent="UVgFr4VgrDs2HpoLc4kV-1" source="radDfmzUJBzaBCt03nPj-168" target="radDfmzUJBzaBCt03nPj-152" edge="1">
                    <mxGeometry relative="1" as="geometry">
                        <mxPoint x="912.5" y="417.75" as="targetPoint"/>
                    </mxGeometry>
                </mxCell>
                <mxCell id="radDfmzUJBzaBCt03nPj-171" value="kill -9 1" style="edgeStyle=orthogonalEdgeStyle;rounded=0;html=1;exitX=1;exitY=0.5;exitDx=0;exitDy=0;entryX=1;entryY=0.5;entryDx=0;entryDy=0;dashed=1;fontColor=#FF0000;endArrow=classic;endFill=1;" parent="UVgFr4VgrDs2HpoLc4kV-1" source="radDfmzUJBzaBCt03nPj-168" target="radDfmzUJBzaBCt03nPj-152" edge="1">
                    <mxGeometry relative="1" as="geometry"/>
                </mxCell>
                <mxCell id="radDfmzUJBzaBCt03nPj-168" value="" style="rounded=0;whiteSpace=wrap;html=1;" parent="UVgFr4VgrDs2HpoLc4kV-1" vertex="1">
                    <mxGeometry x="819.5" y="466" width="186" height="95" as="geometry"/>
                </mxCell>
                <mxCell id="radDfmzUJBzaBCt03nPj-169" value="&lt;div&gt;&lt;i style=&quot;background-color: rgb(204 , 229 , 255)&quot;&gt;PID Namespace b:&lt;/i&gt;&lt;/div&gt;&lt;div&gt;&lt;i style=&quot;background-color: rgb(204 , 229 , 255)&quot;&gt;&lt;span style=&quot;white-space: pre&quot;&gt;&#9;&lt;/span&gt;PID: 3&lt;/i&gt;&lt;/div&gt;&lt;div&gt;&lt;i style=&quot;background-color: rgb(204 , 229 , 255)&quot;&gt;&lt;span style=&quot;white-space: pre&quot;&gt;&#9;&lt;/span&gt;PPID: 1&lt;/i&gt;&lt;/div&gt;&lt;i&gt;&lt;div&gt;&lt;i style=&quot;background-color: rgb(204 , 255 , 204)&quot;&gt;PID Namespace a:&lt;/i&gt;&lt;/div&gt;&lt;div&gt;&lt;i style=&quot;background-color: rgb(204 , 255 , 204)&quot;&gt;&lt;span style=&quot;white-space: pre&quot;&gt;&#9;&lt;/span&gt;PID: 13&lt;/i&gt;&lt;/div&gt;&lt;div&gt;&lt;i style=&quot;background-color: rgb(204 , 255 , 204)&quot;&gt;&lt;span style=&quot;white-space: pre&quot;&gt;&#9;&lt;/span&gt;PPID: 11&lt;/i&gt;&lt;/div&gt;&lt;/i&gt;" style="text;html=1;strokeColor=none;fillColor=none;align=left;verticalAlign=middle;whiteSpace=wrap;rounded=0;" parent="UVgFr4VgrDs2HpoLc4kV-1" vertex="1">
                    <mxGeometry x="843" y="498.5" width="147.5" height="30" as="geometry"/>
                </mxCell>
                <mxCell id="radDfmzUJBzaBCt03nPj-170" value="" style="shape=flexArrow;endArrow=classic;html=1;rounded=0;fontColor=#FF0000;width=20;endSize=10;" parent="UVgFr4VgrDs2HpoLc4kV-1" edge="1">
                    <mxGeometry width="50" height="50" relative="1" as="geometry">
                        <mxPoint x="1090" y="513" as="sourcePoint"/>
                        <mxPoint x="1140" y="513" as="targetPoint"/>
                        <Array as="points">
                            <mxPoint x="1110" y="513"/>
                        </Array>
                    </mxGeometry>
                </mxCell>
                <mxCell id="radDfmzUJBzaBCt03nPj-172" value="PID Namespace: a" style="text;html=1;strokeColor=none;fillColor=none;align=center;verticalAlign=middle;whiteSpace=wrap;rounded=0;" parent="UVgFr4VgrDs2HpoLc4kV-1" vertex="1">
                    <mxGeometry x="1207.5" y="131.5" width="150" height="30" as="geometry"/>
                </mxCell>
                <mxCell id="radDfmzUJBzaBCt03nPj-173" value="PID Namespace: b" style="text;html=1;strokeColor=none;fillColor=none;align=center;verticalAlign=middle;whiteSpace=wrap;rounded=0;" parent="UVgFr4VgrDs2HpoLc4kV-1" vertex="1">
                    <mxGeometry x="1437.5" y="131" width="150" height="30" as="geometry"/>
                </mxCell>
                <mxCell id="radDfmzUJBzaBCt03nPj-192" value="kill -9 11" style="edgeStyle=orthogonalEdgeStyle;rounded=0;html=1;exitX=0.75;exitY=1;exitDx=0;exitDy=0;entryX=0.25;entryY=1;entryDx=0;entryDy=0;dashed=1;fontColor=#FF0000;endArrow=classic;endFill=1;" parent="UVgFr4VgrDs2HpoLc4kV-1" source="radDfmzUJBzaBCt03nPj-174" target="radDfmzUJBzaBCt03nPj-176" edge="1">
                    <mxGeometry relative="1" as="geometry">
                        <Array as="points">
                            <mxPoint x="1329" y="350"/>
                            <mxPoint x="1466" y="350"/>
                        </Array>
                    </mxGeometry>
                </mxCell>
                <mxCell id="radDfmzUJBzaBCt03nPj-174" value="" style="rounded=0;whiteSpace=wrap;html=1;" parent="UVgFr4VgrDs2HpoLc4kV-1" vertex="1">
                    <mxGeometry x="1190" y="196.5" width="185" height="72.5" as="geometry"/>
                </mxCell>
                <mxCell id="radDfmzUJBzaBCt03nPj-175" style="edgeStyle=orthogonalEdgeStyle;rounded=0;html=1;exitX=0;exitY=0.5;exitDx=0;exitDy=0;entryX=1;entryY=0.5;entryDx=0;entryDy=0;fontColor=#CCFFCC;endArrow=block;endFill=0;" parent="UVgFr4VgrDs2HpoLc4kV-1" source="radDfmzUJBzaBCt03nPj-176" target="radDfmzUJBzaBCt03nPj-174" edge="1">
                    <mxGeometry relative="1" as="geometry"/>
                </mxCell>
                <mxCell id="radDfmzUJBzaBCt03nPj-176" value="" style="rounded=0;whiteSpace=wrap;html=1;" parent="UVgFr4VgrDs2HpoLc4kV-1" vertex="1">
                    <mxGeometry x="1419.5" y="184.75" width="186" height="95" as="geometry"/>
                </mxCell>
                <mxCell id="radDfmzUJBzaBCt03nPj-177" value="&lt;div&gt;&lt;i style=&quot;background-color: rgb(204 , 229 , 255)&quot;&gt;PID Namespace b:&lt;/i&gt;&lt;/div&gt;&lt;div&gt;&lt;i style=&quot;background-color: rgb(204 , 229 , 255)&quot;&gt;&lt;span style=&quot;white-space: pre&quot;&gt;&#9;&lt;/span&gt;PID: 1&lt;/i&gt;&lt;/div&gt;&lt;div&gt;&lt;i style=&quot;background-color: rgb(204 , 229 , 255)&quot;&gt;&lt;span style=&quot;white-space: pre&quot;&gt;&#9;&lt;/span&gt;PPID: 0&lt;/i&gt;&lt;/div&gt;&lt;i&gt;&lt;div&gt;&lt;i style=&quot;background-color: rgb(204 , 255 , 204)&quot;&gt;PID Namespace a:&lt;/i&gt;&lt;/div&gt;&lt;div&gt;&lt;i style=&quot;background-color: rgb(204 , 255 , 204)&quot;&gt;&lt;span style=&quot;white-space: pre&quot;&gt;&#9;&lt;/span&gt;PID: 11&lt;/i&gt;&lt;/div&gt;&lt;div&gt;&lt;i style=&quot;background-color: rgb(204 , 255 , 204)&quot;&gt;&lt;span style=&quot;white-space: pre&quot;&gt;&#9;&lt;/span&gt;PPID: 10&lt;/i&gt;&lt;/div&gt;&lt;/i&gt;" style="text;html=1;strokeColor=none;fillColor=none;align=left;verticalAlign=middle;whiteSpace=wrap;rounded=0;" parent="UVgFr4VgrDs2HpoLc4kV-1" vertex="1">
                    <mxGeometry x="1440" y="217.25" width="147.5" height="30" as="geometry"/>
                </mxCell>
                <mxCell id="radDfmzUJBzaBCt03nPj-178" value="&lt;div&gt;&lt;i style=&quot;background-color: rgb(204 , 255 , 204)&quot;&gt;PID Namespace a PID:&amp;nbsp; 10&lt;/i&gt;&lt;br&gt;&lt;/div&gt;" style="text;html=1;strokeColor=none;fillColor=none;align=left;verticalAlign=middle;whiteSpace=wrap;rounded=0;" parent="UVgFr4VgrDs2HpoLc4kV-1" vertex="1">
                    <mxGeometry x="1207.5" y="217.75" width="147.5" height="30" as="geometry"/>
                </mxCell>
                <mxCell id="radDfmzUJBzaBCt03nPj-179" style="edgeStyle=orthogonalEdgeStyle;rounded=0;html=1;exitX=0;exitY=0.5;exitDx=0;exitDy=0;entryX=0.5;entryY=0;entryDx=0;entryDy=0;fontColor=#CCFFCC;endArrow=block;endFill=0;" parent="UVgFr4VgrDs2HpoLc4kV-1" source="radDfmzUJBzaBCt03nPj-180" target="radDfmzUJBzaBCt03nPj-182" edge="1">
                    <mxGeometry relative="1" as="geometry"/>
                </mxCell>
                <mxCell id="radDfmzUJBzaBCt03nPj-180" value="" style="rounded=0;whiteSpace=wrap;html=1;" parent="UVgFr4VgrDs2HpoLc4kV-1" vertex="1">
                    <mxGeometry x="1419.5" y="756.5" width="186" height="95" as="geometry"/>
                </mxCell>
                <mxCell id="radDfmzUJBzaBCt03nPj-181" value="&lt;div&gt;&lt;i style=&quot;background-color: rgb(204 , 229 , 255)&quot;&gt;PID Namespace b:&lt;/i&gt;&lt;/div&gt;&lt;div&gt;&lt;i style=&quot;background-color: rgb(204 , 229 , 255)&quot;&gt;&lt;span style=&quot;white-space: pre&quot;&gt;&#9;&lt;/span&gt;PID: 5&lt;/i&gt;&lt;/div&gt;&lt;div&gt;&lt;i style=&quot;background-color: rgb(204 , 229 , 255)&quot;&gt;&lt;span style=&quot;white-space: pre&quot;&gt;&#9;&lt;/span&gt;PPID: 0&lt;/i&gt;&lt;/div&gt;&lt;i&gt;&lt;div&gt;&lt;i style=&quot;background-color: rgb(204 , 255 , 204)&quot;&gt;PID Namespace a:&lt;/i&gt;&lt;/div&gt;&lt;div&gt;&lt;i style=&quot;background-color: rgb(204 , 255 , 204)&quot;&gt;&lt;span style=&quot;white-space: pre&quot;&gt;&#9;&lt;/span&gt;PID: 16&lt;/i&gt;&lt;/div&gt;&lt;div&gt;&lt;i style=&quot;background-color: rgb(204 , 255 , 204)&quot;&gt;&lt;span style=&quot;white-space: pre&quot;&gt;&#9;&lt;/span&gt;PPID: 1&lt;/i&gt;&lt;/div&gt;&lt;/i&gt;" style="text;html=1;strokeColor=none;fillColor=none;align=left;verticalAlign=middle;whiteSpace=wrap;rounded=0;" parent="UVgFr4VgrDs2HpoLc4kV-1" vertex="1">
                    <mxGeometry x="1441.75" y="789" width="147.5" height="30" as="geometry"/>
                </mxCell>
                <mxCell id="radDfmzUJBzaBCt03nPj-182" value="" style="rounded=0;whiteSpace=wrap;html=1;" parent="UVgFr4VgrDs2HpoLc4kV-1" vertex="1">
                    <mxGeometry x="1188.75" y="866" width="185" height="72.5" as="geometry"/>
                </mxCell>
                <mxCell id="radDfmzUJBzaBCt03nPj-183" value="&lt;div&gt;&lt;i style=&quot;background-color: rgb(204 , 255 , 204)&quot;&gt;PID Namespace a PID:&amp;nbsp; 1&lt;/i&gt;&lt;br&gt;&lt;/div&gt;" style="text;html=1;strokeColor=none;fillColor=none;align=left;verticalAlign=middle;whiteSpace=wrap;rounded=0;" parent="UVgFr4VgrDs2HpoLc4kV-1" vertex="1">
                    <mxGeometry x="1207.5" y="887.25" width="147.5" height="30" as="geometry"/>
                </mxCell>
                <mxCell id="radDfmzUJBzaBCt03nPj-184" style="edgeStyle=orthogonalEdgeStyle;rounded=0;html=1;exitX=0;exitY=0.5;exitDx=0;exitDy=0;fontColor=#FF0000;endArrow=block;endFill=0;" parent="UVgFr4VgrDs2HpoLc4kV-1" source="radDfmzUJBzaBCt03nPj-185" target="radDfmzUJBzaBCt03nPj-174" edge="1">
                    <mxGeometry relative="1" as="geometry"/>
                </mxCell>
                <mxCell id="radDfmzUJBzaBCt03nPj-185" value="" style="rounded=0;whiteSpace=wrap;html=1;" parent="UVgFr4VgrDs2HpoLc4kV-1" vertex="1">
                    <mxGeometry x="1419.5" y="596.5" width="186" height="95" as="geometry"/>
                </mxCell>
                <mxCell id="radDfmzUJBzaBCt03nPj-186" value="&lt;div&gt;&lt;i style=&quot;background-color: rgb(204 , 229 , 255)&quot;&gt;PID Namespace b:&lt;/i&gt;&lt;/div&gt;&lt;div&gt;&lt;i style=&quot;background-color: rgb(204 , 229 , 255)&quot;&gt;&lt;span style=&quot;white-space: pre&quot;&gt;&#9;&lt;/span&gt;PID: 4&lt;/i&gt;&lt;/div&gt;&lt;div&gt;&lt;i style=&quot;background-color: rgb(204 , 229 , 255)&quot;&gt;&lt;span style=&quot;white-space: pre&quot;&gt;&#9;&lt;/span&gt;PPID: 0&lt;/i&gt;&lt;/div&gt;&lt;i&gt;&lt;div&gt;&lt;i style=&quot;background-color: rgb(204 , 255 , 204)&quot;&gt;PID Namespace a:&lt;/i&gt;&lt;/div&gt;&lt;div&gt;&lt;i style=&quot;background-color: rgb(204 , 255 , 204)&quot;&gt;&lt;span style=&quot;white-space: pre&quot;&gt;&#9;&lt;/span&gt;PID: 14&lt;/i&gt;&lt;/div&gt;&lt;div&gt;&lt;i style=&quot;background-color: rgb(204 , 255 , 204)&quot;&gt;&lt;span style=&quot;white-space: pre&quot;&gt;&#9;&lt;/span&gt;PPID: 10&lt;/i&gt;&lt;/div&gt;&lt;/i&gt;" style="text;html=1;strokeColor=none;fillColor=none;align=left;verticalAlign=middle;whiteSpace=wrap;rounded=0;" parent="UVgFr4VgrDs2HpoLc4kV-1" vertex="1">
                    <mxGeometry x="1441.75" y="629" width="147.5" height="30" as="geometry"/>
                </mxCell>
                <mxCell id="radDfmzUJBzaBCt03nPj-187" style="edgeStyle=orthogonalEdgeStyle;rounded=0;html=1;exitX=0.5;exitY=0;exitDx=0;exitDy=0;entryX=0.5;entryY=1;entryDx=0;entryDy=0;fontColor=#FF0000;endArrow=block;endFill=0;" parent="UVgFr4VgrDs2HpoLc4kV-1" source="radDfmzUJBzaBCt03nPj-189" target="radDfmzUJBzaBCt03nPj-176" edge="1">
                    <mxGeometry relative="1" as="geometry">
                        <mxPoint x="1512.5" y="418.25" as="targetPoint"/>
                    </mxGeometry>
                </mxCell>
                <mxCell id="radDfmzUJBzaBCt03nPj-189" value="" style="rounded=0;whiteSpace=wrap;html=1;" parent="UVgFr4VgrDs2HpoLc4kV-1" vertex="1">
                    <mxGeometry x="1419.5" y="466.5" width="186" height="95" as="geometry"/>
                </mxCell>
                <mxCell id="radDfmzUJBzaBCt03nPj-190" value="&lt;div&gt;&lt;i style=&quot;background-color: rgb(204 , 229 , 255)&quot;&gt;PID Namespace b:&lt;/i&gt;&lt;/div&gt;&lt;div&gt;&lt;i style=&quot;background-color: rgb(204 , 229 , 255)&quot;&gt;&lt;span style=&quot;white-space: pre&quot;&gt;&#9;&lt;/span&gt;PID: 3&lt;/i&gt;&lt;/div&gt;&lt;div&gt;&lt;i style=&quot;background-color: rgb(204 , 229 , 255)&quot;&gt;&lt;span style=&quot;white-space: pre&quot;&gt;&#9;&lt;/span&gt;PPID: 1&lt;/i&gt;&lt;/div&gt;&lt;i&gt;&lt;div&gt;&lt;i style=&quot;background-color: rgb(204 , 255 , 204)&quot;&gt;PID Namespace a:&lt;/i&gt;&lt;/div&gt;&lt;div&gt;&lt;i style=&quot;background-color: rgb(204 , 255 , 204)&quot;&gt;&lt;span style=&quot;white-space: pre&quot;&gt;&#9;&lt;/span&gt;PID: 13&lt;/i&gt;&lt;/div&gt;&lt;div&gt;&lt;i style=&quot;background-color: rgb(204 , 255 , 204)&quot;&gt;&lt;span style=&quot;white-space: pre&quot;&gt;&#9;&lt;/span&gt;PPID: 11&lt;/i&gt;&lt;/div&gt;&lt;/i&gt;" style="text;html=1;strokeColor=none;fillColor=none;align=left;verticalAlign=middle;whiteSpace=wrap;rounded=0;" parent="UVgFr4VgrDs2HpoLc4kV-1" vertex="1">
                    <mxGeometry x="1443" y="499" width="147.5" height="30" as="geometry"/>
                </mxCell>
                <mxCell id="radDfmzUJBzaBCt03nPj-194" value="" style="shape=flexArrow;endArrow=classic;html=1;rounded=0;fontColor=#FF0000;width=20;endSize=10;" parent="UVgFr4VgrDs2HpoLc4kV-1" edge="1">
                    <mxGeometry width="50" height="50" relative="1" as="geometry">
                        <mxPoint x="1670" y="512.5" as="sourcePoint"/>
                        <mxPoint x="1720" y="512.5" as="targetPoint"/>
                        <Array as="points">
                            <mxPoint x="1690" y="512.5"/>
                        </Array>
                    </mxGeometry>
                </mxCell>
                <mxCell id="radDfmzUJBzaBCt03nPj-195" value="PID Namespace: a" style="text;html=1;strokeColor=none;fillColor=none;align=center;verticalAlign=middle;whiteSpace=wrap;rounded=0;" parent="UVgFr4VgrDs2HpoLc4kV-1" vertex="1">
                    <mxGeometry x="1747.5" y="132" width="150" height="30" as="geometry"/>
                </mxCell>
                <mxCell id="radDfmzUJBzaBCt03nPj-217" style="edgeStyle=orthogonalEdgeStyle;rounded=0;html=1;exitX=0.5;exitY=1;exitDx=0;exitDy=0;entryX=0.4;entryY=0.1;entryDx=0;entryDy=0;entryPerimeter=0;dashed=1;fontColor=#FF0000;endArrow=none;endFill=0;" parent="UVgFr4VgrDs2HpoLc4kV-1" source="radDfmzUJBzaBCt03nPj-198" target="radDfmzUJBzaBCt03nPj-216" edge="1">
                    <mxGeometry relative="1" as="geometry"/>
                </mxCell>
                <mxCell id="radDfmzUJBzaBCt03nPj-198" value="" style="rounded=0;whiteSpace=wrap;html=1;" parent="UVgFr4VgrDs2HpoLc4kV-1" vertex="1">
                    <mxGeometry x="1730" y="197" width="185" height="72.5" as="geometry"/>
                </mxCell>
                <mxCell id="radDfmzUJBzaBCt03nPj-202" value="&lt;div&gt;&lt;i style=&quot;background-color: rgb(204 , 255 , 204)&quot;&gt;PID Namespace a PID:&amp;nbsp; 10&lt;/i&gt;&lt;br&gt;&lt;/div&gt;" style="text;html=1;strokeColor=none;fillColor=none;align=left;verticalAlign=middle;whiteSpace=wrap;rounded=0;" parent="UVgFr4VgrDs2HpoLc4kV-1" vertex="1">
                    <mxGeometry x="1747.5" y="218.25" width="147.5" height="30" as="geometry"/>
                </mxCell>
                <mxCell id="radDfmzUJBzaBCt03nPj-206" value="" style="rounded=0;whiteSpace=wrap;html=1;" parent="UVgFr4VgrDs2HpoLc4kV-1" vertex="1">
                    <mxGeometry x="1730" y="866" width="185" height="72.5" as="geometry"/>
                </mxCell>
                <mxCell id="radDfmzUJBzaBCt03nPj-207" value="&lt;div&gt;&lt;i style=&quot;background-color: rgb(204 , 255 , 204)&quot;&gt;PID Namespace a PID:&amp;nbsp; 1&lt;/i&gt;&lt;br&gt;&lt;/div&gt;" style="text;html=1;strokeColor=none;fillColor=none;align=left;verticalAlign=middle;whiteSpace=wrap;rounded=0;" parent="UVgFr4VgrDs2HpoLc4kV-1" vertex="1">
                    <mxGeometry x="1748.75" y="887.25" width="147.5" height="30" as="geometry"/>
                </mxCell>
                <mxCell id="radDfmzUJBzaBCt03nPj-216" value="&lt;b&gt;Must Register&lt;br&gt;&amp;nbsp;SIGCHLD Handler&lt;/b&gt;" style="ellipse;shape=cloud;whiteSpace=wrap;html=1;dashed=1;labelBackgroundColor=#FFFFFF;fontColor=#FF0000;" parent="UVgFr4VgrDs2HpoLc4kV-1" vertex="1">
                    <mxGeometry x="1762" y="465.5" width="152" height="80" as="geometry"/>
                </mxCell>
            </root>
        </mxGraphModel>
    </diagram>
</mxfile>